HIERARCHY
ROOT Hips
{
	OFFSET	0.00	0.00	0.00
	CHANNELS 6 Xposition Yposition Zposition Zrotation Xrotation Yrotation
	JOINT Chest
	{
		OFFSET	 0.000000	 4.570000	 0.000000
		CHANNELS 3 Zrotation Xrotation Yrotation
		JOINT Neck
		{
			OFFSET	 0.000000	 17.620001	 0.000000
			CHANNELS 3 Zrotation Xrotation Yrotation
			JOINT Head
			{
				OFFSET	 0.000000	 5.190000	 0.000000
				CHANNELS 3 Zrotation Xrotation Yrotation
				End Site 
				{
					OFFSET	 0.000000	 4.140008	 0.000000
				}
			}
		}
		JOINT LeftCollar
		{
			OFFSET	 1.060000	 15.330000	 01.760000
			CHANNELS 3 Zrotation Xrotation Yrotation
			JOINT LeftShoulder
			{
				OFFSET	 5.00000	 0.000000	 0.000000
				CHANNELS 3 Zrotation Xrotation Yrotation
				JOINT LeftElbow
				{
					OFFSET	 0.000000	-11.90000	 0.000000
					CHANNELS 3 Zrotation Xrotation Yrotation
					JOINT LeftWrist
					{
						OFFSET	 0.000000	-9.520000	 0.000000
						CHANNELS 3 Zrotation Xrotation Yrotation
						End Site 
						{
							OFFSET	 0.000000	-7.0	 0.000000
						}
					}
				}
			}
		}
		JOINT RightCollar
		{
			OFFSET	-1.060000	 15.330000	 01.760000
			CHANNELS 3 Zrotation Xrotation Yrotation
			JOINT RightShoulder
			{
				OFFSET	-5.000000	 0.000000	 0.000000
				CHANNELS 3 Zrotation Xrotation Yrotation
				JOINT RightElbow
				{
					OFFSET	 0.000000	-11.900000	 0.000000
					CHANNELS 3 Zrotation Xrotation Yrotation
					JOINT RightWrist
					{
						OFFSET	 0.000000	-9.520000	 0.000000
						CHANNELS 3 Zrotation Xrotation Yrotation
						End Site 
						{
							OFFSET	 0.000000	-7.0	 0.000000
						}
					}
				}
			}
		}
	}
	JOINT LeftHip
	{
		OFFSET	 3.430000	 0.000000	 0.000000
		CHANNELS 3 Zrotation Xrotation Yrotation
		JOINT LeftKnee
		{
			OFFSET	 0.000000	-19.0	 0.000000
			CHANNELS 3 Zrotation Xrotation Yrotation
			JOINT LeftAnkle
			{
				OFFSET	 0.000000	-15.00000	 0.000000
				CHANNELS 3 Zrotation Xrotation Yrotation
				End Site 
				{
					OFFSET	 0.000000	-3.0	 0.000000
				}
			}
		}
	}
	JOINT RightHip
	{
		OFFSET	-3.430000	 0.000000	 0.000000
		CHANNELS 3 Zrotation Xrotation Yrotation
		JOINT RightKnee
		{
			OFFSET	 0.000000	-19.0	 0.000000
			CHANNELS 3 Zrotation Xrotation Yrotation
			JOINT RightAnkle
			{
				OFFSET	 0.000000	-15.00000	 0.000000
				CHANNELS 3 Zrotation Xrotation Yrotation
				End Site 
				{
					OFFSET	 0.000000	-3.0	 0.000000
				}
			}
		}
	}
}
MOTION
Frames: 16
Frame Time: 0.033333333
-0.093986	26.181082	-0.453970	-3.623233	1.998664	89.876824	-0.161368	18.197572	5.760926	358.919929	-356.425626	-0.179797	-2.956489	-24.934862	0.446762	31.828059	24.117937	8.051034	341.511635	358.195737	-9.614352	47.491796	-106.181715	0.921530	11.894153	-1.421308	60.050407	338.445863	-336.497019	-15.416425	-7.293287	-0.338253	82.420423	-117.669417	-16.581993	-42.643465	188.004503	-182.285914	101.065582	1.111930	-29.963899	16.823418	-116.407006	114.928311	124.692722	328.503758	-351.108597	-27.685068	356.490348	332.983980	-1.429619	-17.915476	67.459229	16.766394	61.581441	-3.855262	17.973092	
0.089368	27.295865	-0.463070	-3.932285	1.885117	90.284607	-0.053896	16.293004	5.854123	359.398588	-354.530986	-0.082988	356.216731	336.477649	-0.330882	32.556608	24.161577	7.195118	343.262458	350.962622	-8.270188	59.054360	-110.644827	15.407926	9.027530	-2.181234	59.822292	338.680576	-336.630563	-16.683983	-9.159295	-8.622180	78.824076	-299.415841	199.005356	134.408338	-163.979628	175.883882	101.477545	1.749758	-26.580307	17.612073	-308.392513	-297.776651	-42.435916	329.704506	-346.399291	-27.808276	356.797734	336.666326	-1.217895	-14.717959	61.217502	12.739694	59.964162	-2.689590	14.138547	
0.286745	28.804231	-0.445418	-4.736767	1.452661	90.935551	0.277286	13.695884	5.978147	0.161390	7.592193	0.007562	355.382601	338.249673	-1.312082	33.264246	24.153683	7.057386	344.725949	343.817315	-7.333964	60.313984	-114.085651	18.798775	6.210992	-2.479778	59.539816	339.247782	-336.841042	-18.585352	-10.280425	-16.094678	76.299228	-299.816364	198.337732	134.770721	-160.061121	176.092941	101.307740	2.405217	-22.706429	18.336069	-320.018287	-303.498218	-29.517618	332.669354	-340.258951	-28.021916	357.335079	340.982459	-0.890851	-11.905978	52.629270	8.865899	57.578459	0.359443	8.042576	
0.456787	30.525395	-0.405514	-5.963962	0.777136	91.794892	0.700778	10.767402	6.140357	1.213638	9.507573	0.060510	354.797172	339.839850	-2.312510	34.057142	24.114091	7.339748	345.027051	337.293392	-7.144160	57.956264	-115.226559	18.755479	3.792414	-1.814730	59.256151	340.024347	-337.090016	-20.665865	-10.449507	-21.844589	74.882715	-298.636407	196.074413	134.868106	-160.482940	175.996485	101.201353	2.958070	-19.267034	18.844980	-328.408382	-311.218380	-19.640490	337.361175	-332.951386	-28.478789	357.962391	345.056475	-0.566913	-10.025328	42.906609	5.820106	56.375830	5.944403	0.412931	
0.585042	32.420361	-0.345667	-7.563981	-0.069798	92.845928	1.074121	7.650572	6.335233	2.602142	11.039127	0.067981	354.517762	340.941478	-3.276500	35.254553	24.069950	7.520490	344.140055	331.146249	-7.657995	55.302244	-114.541552	20.569766	2.323393	-0.490863	59.125681	340.924894	-337.348006	-22.668738	-10.332383	-26.339507	73.951255	-296.628386	193.254091	133.508611	-162.906031	174.688107	101.234841	3.531975	-16.702715	19.235733	-334.235953	-319.916408	-12.387426	344.276249	-324.494137	-29.956727	358.490583	348.562384	-0.342511	-8.752009	32.571788	3.383677	-302.712801	-346.312930	-8.740278	
0.630141	34.710242	-0.250515	-9.924335	-1.138992	94.218782	1.254355	3.966233	6.551507	4.540075	12.151164	0.036836	354.428314	341.510815	-4.209945	37.633259	24.025301	7.225737	342.423875	324.646450	-8.746265	49.547335	-112.625240	19.536115	3.498680	0.831713	59.259485	341.801672	-337.631759	-24.683541	-11.515851	-29.890789	72.518070	-294.624163	190.684806	127.689536	-165.851550	172.973675	101.380201	4.538580	-15.958223	19.764362	-339.115140	-328.769453	-6.835633	355.474399	-314.346143	-34.225541	358.562846	350.815308	-0.327989	-7.307213	21.842989	1.302492	-302.267937	-336.915819	-19.644522	
0.566569	36.255708	-0.164518	-11.869879	-1.943302	94.902778	1.363451	1.448821	6.692964	5.623837	12.628472	0.000790	354.326189	341.628786	-4.604434	39.571161	23.983322	7.015352	342.229460	320.611612	-9.129492	40.349898	-111.432409	9.168899	4.818268	1.620682	59.277844	341.798339	-337.816284	-25.803575	-13.274328	-31.564404	71.176730	-294.595913	188.735388	127.289547	-166.098721	172.322485	101.416162	5.568265	-17.551837	20.303824	-341.131029	-331.422626	-5.264872	-359.439597	-309.378437	-35.957339	358.685844	349.859191	-0.271383	-6.554229	18.684168	0.769118	-304.367974	-333.109847	-23.773803	
0.470210	37.489417	-0.096016	-13.298136	-2.596004	95.171457	1.540801	-0.161028	6.805658	-353.848021	-347.201209	-0.016451	354.278706	341.566823	-4.725942	41.128010	23.925764	7.152639	343.214838	317.889126	-8.900237	-329.878129	248.629042	-2.822039	5.390923	2.214335	59.185732	341.180425	-337.944473	-26.432089	-15.182916	-32.308590	69.950110	-295.377014	187.153858	128.163578	-165.443624	172.210730	101.406013	6.514061	-19.882569	20.832981	-341.565484	-330.328566	-5.473039	-359.879871	-308.071603	-34.056685	358.887390	347.653231	-0.159079	-6.229989	19.699882	0.858607	-306.426566	-332.230091	-24.312375	
0.402419	38.560566	-0.057566	-13.747687	-3.052465	95.170665	1.781126	-0.513178	6.878194	-353.781605	-347.243092	-0.011592	354.306573	341.444781	-4.629282	42.471823	23.839528	7.741674	345.147317	316.582538	-8.084776	-340.172644	247.288877	-14.901621	5.242845	2.690143	59.017969	340.056531	-338.038484	-26.744935	-17.238663	-32.100423	68.843551	-296.997053	185.720160	129.656098	-164.744773	172.358412	101.387086	7.363642	-21.785712	21.334744	-340.864515	-326.648952	-6.878489	356.617226	-309.902995	-30.287776	359.071723	345.725752	-0.041308	-6.169471	22.891411	1.244157	-307.690861	-333.165089	-22.786393	
0.414299	39.508076	-0.058336	-12.813888	-3.225787	95.048637	1.991975	0.730324	6.860133	5.908295	12.544626	0.010977	354.400147	341.355497	-4.335393	43.742002	23.717488	8.757199	347.615283	317.001802	-6.835249	-349.339250	244.391620	-26.494511	4.435762	3.264644	58.761250	338.599379	-338.113479	-26.869562	-19.400216	-30.754842	67.917555	-299.586569	184.305314	131.755411	-164.469803	172.395363	101.409482	8.041186	-22.372139	21.749598	-339.291086	-321.414432	-9.250800	353.174701	-313.795875	-27.286617	359.107923	345.313099	-0.015711	-6.283276	26.631604	1.741164	-308.239626	-334.707810	-20.075662	
0.511635	39.925459	-0.075233	-11.051905	-2.882065	95.018522	1.766771	2.861724	6.695972	5.507479	12.233744	0.040340	354.444488	341.452649	-4.033699	44.257866	23.622666	9.669785	349.451702	318.785738	-5.792624	-352.396388	241.833305	-30.675441	3.677387	3.805053	58.593896	337.678505	-338.149761	-26.879659	-20.328403	-28.653592	67.838987	-301.734882	184.030126	131.274730	-165.114928	172.151580	101.451406	8.023934	-21.156626	21.728800	-338.218309	-318.271097	-10.835103	353.150386	-315.688876	-27.405660	358.833977	347.130257	-0.175417	-6.494267	27.633118	1.926335	-308.465295	-334.573966	-18.018723	
0.601004	40.144869	-0.068273	-9.603249	-2.490703	95.069325	1.433876	4.683164	6.540773	5.112493	11.955018	0.062305	354.450335	341.619552	-3.908861	44.316855	23.560870	10.338572	351.321043	321.334300	-4.712616	-353.508097	239.334084	-32.621416	3.122502	4.037333	58.490071	337.183071	-338.143587	-26.736997	-20.909070	-25.902228	68.082272	-303.796670	184.264032	129.223665	-165.830923	171.920365	101.476002	7.826915	-20.157146	21.598185	-337.276836	-315.965444	-12.132310	353.762234	-317.123325	-28.158456	358.566644	348.828461	-0.312059	-6.597061	27.914371	1.991645	-307.953277	-333.961817	-16.491536	
0.655558	40.136135	-0.001670	-9.101860	-2.510516	94.994460	1.339397	5.491350	6.483355	4.730075	11.799215	0.069844	354.498720	341.779050	-3.757342	44.153053	23.541370	10.612106	353.484164	325.277696	-3.466228	-353.534488	236.459203	-33.925655	2.522362	3.864526	58.406435	336.964914	-338.095010	-26.409559	-21.049795	-22.001908	68.797529	-305.933044	185.253549	125.187720	-166.228386	171.720718	101.497066	8.087796	-20.357209	21.755028	-336.130347	-313.959827	-13.499699	353.463400	-318.313581	-28.788758	358.889548	349.362445	-0.181870	-6.891923	27.869143	2.065881	-303.253998	-333.089411	-16.159013	
0.675542	39.908098	0.105632	-9.458324	-2.938329	94.745055	1.531794	5.367454	6.515606	4.371484	11.728112	0.068929	354.589807	341.844784	-3.458686	43.853908	23.561804	10.503032	355.463061	330.146064	-2.347156	-352.347238	233.807669	-33.043112	2.739075	3.486418	58.420464	336.985542	-338.013321	-25.937525	-20.883339	-17.556775	69.789232	-307.876178	186.762242	120.245586	-166.309938	171.667689	101.524175	8.815808	-21.478402	22.212744	-335.016972	-312.492402	-14.710212	352.452313	-319.176480	-29.151622	-0.227808	-11.267927	0.202789	-7.355143	27.875982	2.193138	-296.648658	-332.260772	-16.791668	
0.672315	39.495470	0.208783	-10.230920	-3.554763	94.356650	1.921974	4.788802	6.604687	4.066824	11.626647	0.070559	354.683408	341.729053	-2.979072	43.476707	23.612149	10.091366	356.715854	334.904192	-1.649116	-349.848345	232.031820	-27.858678	4.358505	3.397403	58.625602	337.253148	-337.916524	-25.423191	-20.638758	-13.623545	70.726580	-309.277077	188.223466	115.854608	-166.107054	171.782203	101.550430	9.731794	-22.702503	22.806431	-334.463972	-312.001066	-15.242263	351.580972	-319.544053	-29.225050	0.887362	-12.569336	0.738110	-7.759613	28.329882	2.373668	-292.883804	-331.964806	-17.251830	
0.677821	38.831387	0.276003	-10.679777	-3.977387	94.038015	2.169134	4.645602	6.649959	3.888117	11.268488	0.092483	354.759824	341.353775	-2.699556	42.978554	23.679521	9.516058	357.341035	340.078880	-1.308537	-348.097412	229.928449	-25.611993	5.347282	2.847371	58.787266	337.893629	-337.818579	-24.976488	-20.726079	-9.434444	71.526962	-311.073171	189.171701	114.240648	-165.755272	172.095805	101.551072	10.278536	-23.292618	23.167986	-334.440859	-312.280721	-15.157868	352.513457	-319.832506	-29.421896	1.654689	-13.729541	1.150078	-7.768203	29.573158	2.568804	-291.862800	-332.451088	-17.566741	
